<svg width="394" height="291" viewBox="0 0 394 291" fill="none" xmlns="http://www.w3.org/2000/svg">
<path d="M47 54C47 52.8954 47.8954 52 49 52H351C352.105 52 353 52.8954 353 54V241C353 242.105 352.105 243 351 243H49C47.8954 243 47 242.105 47 241V54Z" fill="white"/>
<path d="M49 53H351V51H49V53ZM352 54V241H354V54H352ZM351 242H49V244H351V242ZM48 241V54H46V241H48ZM49 242C48.4477 242 48 241.552 48 241H46C46 242.657 47.3431 244 49 244V242ZM352 241C352 241.552 351.552 242 351 242V244C352.657 244 354 242.657 354 241H352ZM351 53C351.552 53 352 53.4477 352 54H354C354 52.3431 352.657 51 351 51V53ZM49 51C47.3431 51 46 52.3432 46 54H48C48 53.4477 48.4477 53 49 53V51Z" fill="black" fill-opacity="0.1"/>
<path d="M210.5 172L221.613 202.058L257.577 202.058L228.482 220.634L239.595 250.692L210.5 232.116L181.405 250.692L192.518 220.634L163.423 202.058L199.387 202.058L210.5 172Z" fill="#59FF00"/>
<path d="M197 141L353.751 174H40.2494L197 141Z" fill="#51FF00"/>
<ellipse cx="201" cy="127.5" rx="50" ry="21.5" fill="#FFFF01"/>
<path d="M134.485 79.7336C134.051 80.2725 137.229 83.1827 142.718 87.2785C161.545 101.269 159.042 101.398 162.46 101.398C166.12 101.398 165.59 100.795 154.419 91.5253C142.43 81.5875 136.122 77.8365 134.485 79.7336Z" fill="#FF9D00"/>
<path d="M131.259 103.683C130.633 103.963 130.97 104.201 133.185 105.279C136.507 106.874 142.045 107.542 142.045 106.356C141.996 105.386 132.655 103.058 131.259 103.683Z" fill="#FF9D00"/>
<path d="M123.409 110.603C100.201 107.154 92.1595 106.291 89.4149 107.024C87.1518 107.606 88.5 108.038 94.8078 108.749C100.201 109.331 110.023 110.668 119.654 112.112C127.55 113.298 129.38 113.427 131.595 113.06C134.629 112.521 132.847 112.004 123.409 110.603Z" fill="#FF9D00"/>
<path d="M172.524 74.5383C172.091 75.0557 174.546 79.9705 176.713 83.01C177.243 83.7429 178.302 85.6831 179.073 87.2999C180.517 90.4472 180.758 90.6199 183.502 90.6199C186.103 90.6199 186.103 90.6628 182.973 85.4028C177.532 76.2411 174.113 72.6844 172.524 74.5383Z" fill="#FF9D00"/>
<path d="M115.609 97.1516C119.317 98.6606 120.472 99.9756 124.035 99.9756C129.765 99.9756 130.006 99.8031 123.169 96.7205C110.505 91.0079 98.371 87.0414 95.7708 87.7743C93.3151 88.5072 102.656 91.1588 115.609 97.1516Z" fill="#FF9D00"/>
<path d="M290.012 92.4524C293.672 91.0727 296.079 89.65 296.079 88.8739C296.079 87.7961 293.094 87.4725 290.542 88.3132C273.545 93.8534 256.355 101.959 259.196 103.058C261.988 104.136 264.829 103.317 277.252 97.863C282.741 95.4702 288.471 93.0344 290.012 92.4524Z" fill="#FF9D00"/>
<path d="M222.793 75.1419C221.301 77.3192 219.76 82.4498 213.741 93.293C212.537 95.4487 212.537 95.4916 214.078 96.1383C215.33 96.6557 217.738 96.8499 218.941 96.505C219.953 96.2247 227.994 81.1348 229.92 75.9395C230.594 73.9132 224.479 72.6413 222.793 75.1419Z" fill="#FF9D00"/>
<path d="M311.728 101.398C297.09 103.231 270.414 108.038 268.922 109.137C267.862 109.892 272.148 110.625 275.037 110.172L285.774 108.447C302.29 105.796 322.61 101.916 322.61 101.42C322.562 100.407 319.624 100.407 311.728 101.398Z" fill="#FF9D00"/>
<path d="M258.954 79.2592C258.135 79.8843 255.68 81.5874 248.264 86.179C244.894 88.2485 239.308 92.5599 239.308 93.0773C239.308 94.112 245.857 90.5335 257.028 83.3766C259.435 81.8245 261.843 80.3801 262.421 80.1646C265.021 79.1083 260.495 78.0951 258.954 79.2592Z" fill="#FF9D00"/>
<rect x="47" y="16" width="59.375" height="30" rx="3" fill="white"/>
<rect x="47.5" y="16.5" width="58.375" height="29" rx="2.5" stroke="black" stroke-opacity="0.2"/>
<path d="M58.3438 28C58.2969 27.6042 58.1068 27.2969 57.7734 27.0781C57.4401 26.8594 57.0313 26.75 56.5469 26.75C56.1927 26.75 55.8828 26.8073 55.6172 26.9219C55.3542 27.0365 55.1484 27.194 55 27.3945C54.8542 27.5951 54.7813 27.8229 54.7813 28.0781C54.7813 28.2917 54.832 28.4753 54.9336 28.6289C55.0378 28.7799 55.1706 28.9062 55.332 29.0078C55.4935 29.1068 55.6628 29.1888 55.8398 29.2539C56.0169 29.3164 56.1797 29.3672 56.3281 29.4062L57.1406 29.625C57.349 29.6797 57.5807 29.7552 57.8359 29.8516C58.0938 29.9479 58.3398 30.0794 58.5742 30.2461C58.8112 30.4102 59.0065 30.6211 59.1602 30.8789C59.3138 31.1367 59.3906 31.4531 59.3906 31.8281C59.3906 32.2604 59.2773 32.651 59.0508 33C58.8268 33.349 58.4987 33.6263 58.0664 33.832C57.6367 34.0378 57.1146 34.1406 56.5 34.1406C55.9271 34.1406 55.431 34.0482 55.0117 33.8633C54.5951 33.6784 54.2669 33.4206 54.0273 33.0898C53.7904 32.7591 53.6563 32.375 53.625 31.9375H54.625C54.651 32.2396 54.7526 32.4896 54.9297 32.6875C55.1094 32.8828 55.3359 33.0286 55.6094 33.125C55.8854 33.2187 56.1823 33.2656 56.5 33.2656C56.8698 33.2656 57.2018 33.2057 57.4961 33.0859C57.7904 32.9635 58.0234 32.7943 58.1953 32.5781C58.3672 32.3594 58.4531 32.1042 58.4531 31.8125C58.4531 31.5469 58.3789 31.3307 58.2305 31.1641C58.082 30.9974 57.8867 30.862 57.6445 30.7578C57.4023 30.6536 57.1406 30.5625 56.8594 30.4844L55.875 30.2031C55.25 30.0234 54.7552 29.7669 54.3906 29.4336C54.026 29.1003 53.8438 28.6641 53.8438 28.125C53.8438 27.6771 53.9648 27.2865 54.207 26.9531C54.4518 26.6172 54.7799 26.3568 55.1914 26.1719C55.6055 25.9844 56.0677 25.8906 56.5781 25.8906C57.0938 25.8906 57.5521 25.9831 57.9531 26.168C58.3542 26.3503 58.6719 26.6003 58.9062 26.918C59.1432 27.2357 59.2682 27.5964 59.2813 28H58.3438ZM63.374 34.125C62.7959 34.125 62.2972 33.9974 61.8779 33.7422C61.4613 33.4844 61.1396 33.125 60.9131 32.6641C60.6891 32.2005 60.5771 31.6615 60.5771 31.0469C60.5771 30.4323 60.6891 29.8906 60.9131 29.4219C61.1396 28.9505 61.4548 28.5833 61.8584 28.3203C62.2646 28.0547 62.7386 27.9219 63.2803 27.9219C63.5928 27.9219 63.9014 27.974 64.2061 28.0781C64.5107 28.1823 64.7881 28.3516 65.0381 28.5859C65.2881 28.8177 65.4873 29.125 65.6357 29.5078C65.7842 29.8906 65.8584 30.362 65.8584 30.9219V31.3125H61.2334V30.5156H64.9209C64.9209 30.1771 64.8532 29.875 64.7178 29.6094C64.585 29.3437 64.3949 29.1341 64.1475 28.9805C63.9027 28.8268 63.6136 28.75 63.2803 28.75C62.9131 28.75 62.5954 28.8411 62.3271 29.0234C62.0615 29.2031 61.8571 29.4375 61.7139 29.7266C61.5706 30.0156 61.499 30.3255 61.499 30.6562V31.1875C61.499 31.6406 61.5771 32.0247 61.7334 32.3398C61.8923 32.6523 62.1123 32.8906 62.3936 33.0547C62.6748 33.2161 63.0016 33.2969 63.374 33.2969C63.6162 33.2969 63.835 33.263 64.0303 33.1953C64.2282 33.125 64.3988 33.0208 64.542 32.8828C64.6852 32.7422 64.7959 32.5677 64.874 32.3594L65.7646 32.6094C65.6709 32.9115 65.5133 33.1771 65.292 33.4062C65.0706 33.6328 64.7972 33.8099 64.4717 33.9375C64.1462 34.0625 63.7803 34.125 63.374 34.125ZM69.6982 34.125C69.1357 34.125 68.6514 33.9922 68.2451 33.7266C67.8389 33.4609 67.5264 33.0951 67.3076 32.6289C67.0889 32.1628 66.9795 31.6302 66.9795 31.0312C66.9795 30.4219 67.0915 29.8841 67.3154 29.418C67.542 28.9492 67.8571 28.5833 68.2607 28.3203C68.667 28.0547 69.141 27.9219 69.6826 27.9219C70.1045 27.9219 70.4847 28 70.8232 28.1562C71.1618 28.3125 71.4391 28.5312 71.6553 28.8125C71.8714 29.0937 72.0055 29.4219 72.0576 29.7969H71.1357C71.0654 29.5234 70.9092 29.2812 70.667 29.0703C70.4274 28.8568 70.1045 28.75 69.6982 28.75C69.3389 28.75 69.0238 28.8437 68.7529 29.0312C68.4847 29.2161 68.2751 29.4779 68.124 29.8164C67.9756 30.1523 67.9014 30.5469 67.9014 31C67.9014 31.4635 67.9743 31.8672 68.1201 32.2109C68.2686 32.5547 68.4769 32.8216 68.7451 33.0117C69.016 33.2018 69.3337 33.2969 69.6982 33.2969C69.9378 33.2969 70.1553 33.2552 70.3506 33.1719C70.5459 33.0885 70.7113 32.9688 70.8467 32.8125C70.9821 32.6562 71.0785 32.4687 71.1357 32.25H72.0576C72.0055 32.6042 71.8766 32.9232 71.6709 33.207C71.4678 33.4883 71.1982 33.7122 70.8623 33.8789C70.529 34.043 70.141 34.125 69.6982 34.125ZM76.0146 28V28.7812H72.9053V28H76.0146ZM73.8115 26.5625H74.7334V32.2812C74.7334 32.5417 74.7712 32.737 74.8467 32.8672C74.9248 32.9948 75.0238 33.0807 75.1436 33.125C75.266 33.1667 75.3949 33.1875 75.5303 33.1875C75.6318 33.1875 75.7152 33.1823 75.7803 33.1719C75.8454 33.1589 75.8975 33.1484 75.9365 33.1406L76.124 33.9687C76.0615 33.9922 75.9743 34.0156 75.8623 34.0391C75.7503 34.0651 75.6084 34.0781 75.4365 34.0781C75.1761 34.0781 74.9209 34.0221 74.6709 33.9102C74.4235 33.7982 74.2178 33.6276 74.0537 33.3984C73.8923 33.1693 73.8115 32.8802 73.8115 32.5312V26.5625ZM77.4014 34V28H78.3232V34H77.4014ZM77.8701 27C77.6904 27 77.5355 26.9388 77.4053 26.8164C77.2777 26.694 77.2139 26.5469 77.2139 26.375C77.2139 26.2031 77.2777 26.056 77.4053 25.9336C77.5355 25.8112 77.6904 25.75 77.8701 25.75C78.0498 25.75 78.2035 25.8112 78.3311 25.9336C78.4613 26.056 78.5264 26.2031 78.5264 26.375C78.5264 26.5469 78.4613 26.694 78.3311 26.8164C78.2035 26.9388 78.0498 27 77.8701 27ZM82.4492 34.125C81.9076 34.125 81.4323 33.9961 81.0234 33.7383C80.6172 33.4805 80.2995 33.1198 80.0703 32.6562C79.8438 32.1927 79.7305 31.651 79.7305 31.0312C79.7305 30.4062 79.8438 29.8607 80.0703 29.3945C80.2995 28.9284 80.6172 28.5664 81.0234 28.3086C81.4323 28.0508 81.9076 27.9219 82.4492 27.9219C82.9909 27.9219 83.4648 28.0508 83.8711 28.3086C84.2799 28.5664 84.5977 28.9284 84.8242 29.3945C85.0534 29.8607 85.168 30.4062 85.168 31.0312C85.168 31.651 85.0534 32.1927 84.8242 32.6562C84.5977 33.1198 84.2799 33.4805 83.8711 33.7383C83.4648 33.9961 82.9909 34.125 82.4492 34.125ZM82.4492 33.2969C82.8607 33.2969 83.1992 33.1914 83.4648 32.9805C83.7305 32.7695 83.9271 32.4922 84.0547 32.1484C84.1823 31.8047 84.2461 31.4323 84.2461 31.0312C84.2461 30.6302 84.1823 30.2565 84.0547 29.9102C83.9271 29.5638 83.7305 29.2839 83.4648 29.0703C83.1992 28.8568 82.8607 28.75 82.4492 28.75C82.0378 28.75 81.6992 28.8568 81.4336 29.0703C81.168 29.2839 80.9714 29.5638 80.8438 29.9102C80.7161 30.2565 80.6523 30.6302 80.6523 31.0312C80.6523 31.4323 80.7161 31.8047 80.8438 32.1484C80.9714 32.4922 81.168 32.7695 81.4336 32.9805C81.6992 33.1914 82.0378 33.2969 82.4492 33.2969ZM87.4971 30.3906V34H86.5752V28H87.4658V28.9375H87.5439C87.6846 28.6328 87.8981 28.388 88.1846 28.2031C88.471 28.0156 88.8408 27.9219 89.2939 27.9219C89.7002 27.9219 90.0557 28.0052 90.3604 28.1719C90.665 28.3359 90.902 28.5859 91.0713 28.9219C91.2406 29.2552 91.3252 29.6771 91.3252 30.1875V34H90.4033V30.25C90.4033 29.7786 90.2809 29.4115 90.0361 29.1484C89.7913 28.8828 89.4554 28.75 89.0283 28.75C88.734 28.75 88.471 28.8138 88.2393 28.9414C88.0101 29.069 87.8291 29.2552 87.6963 29.5C87.5635 29.7448 87.4971 30.0417 87.4971 30.3906ZM98.9004 26V34H97.9316V27.0156H97.8848L95.9316 28.3125V27.3281L97.9316 26H98.9004Z" fill="black"/>
</svg>
